{
  "accessors": [
    {
      "bufferView": 0,
      "byteOffset": 0,
      "componentType": 5126,
      "count": 50,
      "normalized": false,
      "type": "VEC2"
    },
    {
      "bufferView": 1,
      "byteOffset": 0,
      "componentType": 5126,
      "count": 50,
      "max": [
        1.0,
        0.4990135,
        0.5
      ],
      "min": [
        0.0,
        -0.4990135,
        -0.4960575
      ],
      "normalized": false,
      "type": "VEC3"
    },
    {
      "bufferView": 1,
      "byteOffset": 600,
      "componentType": 5126,
      "count": 50,
      "normalized": false,
      "type": "VEC3"
    },
    {
      "bufferView": 2,
      "byteOffset": 0,
      "componentType": 5123,
      "count": 150,
      "normalized": false,
      "type": "SCALAR"
    },
    {
      "bufferView": 3,
      "byteOffset": 0,
      "componentType": 5126,
      "count": 12,
      "normalized": false,
      "type": "VEC2"
    },
    {
      "bufferView": 4,
      "byteOffset": 0,
      "componentType": 5126,
      "count": 12,
      "max": [
        0.99971926,
        0.22452335,
        0.03067259
      ],
      "min": [
        0.10162586,
        -0.22452335,
        -0.21470812
      ],
      "normalized": false,
      "type": "VEC3"
    },
    {
      "bufferView": 4,
      "byteOffset": 144,
      "componentType": 5126,
      "count": 12,
      "normalized": false,
      "type": "VEC3"
    },
    {
      "bufferView": 5,
      "byteOffset": 0,
      "componentType": 5123,
      "count": 36,
      "normalized": false,
      "type": "SCALAR"
    }
  ],
  "asset": {
    "generator": "pygltflib@v1.15.3",
    "version": "2.0"
  },
  "bufferViews": [
    {
      "buffer": 0,
      "byteLength": 400,
      "byteOffset": 1200,
      "target": 34962
    },
    {
      "buffer": 0,
      "byteLength": 1200,
      "byteOffset": 0,
      "byteStride": 12,
      "target": 34962
    },
    {
      "buffer": 0,
      "byteLength": 300,
      "byteOffset": 1600,
      "target": 34963
    },
    {
      "buffer": 1,
      "byteLength": 96,
      "byteOffset": 288,
      "target": 34962
    },
    {
      "buffer": 1,
      "byteLength": 288,
      "byteOffset": 0,
      "byteStride": 12,
      "target": 34962
    },
    {
      "buffer": 1,
      "byteLength": 72,
      "byteOffset": 384,
      "target": 34963
    }
  ],
  "buffers": [
    {
      "byteLength": 1900,
      "uri": "data:application/octet-stream;base64,"
    },
    {
      "byteLength": 456,
      "uri": "data:application/octet-stream;base64,"
    }
  ],
  "meshes": [
    {
      "primitives": [
        {
          "attributes": {
            "NORMAL": 2,
            "POSITION": 1,
            "TEXCOORD_0": 0
          },
          "indices": 3,
          "mode": 4
        }
      ]
    },
    {
      "primitives": [
        {
          "attributes": {
            "NORMAL": 6,
            "POSITION": 5,
            "TEXCOORD_0": 4
          },
          "indices": 7,
          "mode": 4
        }
      ]
    }
  ],
  "nodes": [
    {
      "extras": {
        "component_roots": [
          1
        ],
        "scale": 0
      },
      "name": "Scene"
    },
    {
      "extras": {
        "FileName": "ArchiTree",
        "component_roots": [
          2
        ],
        "scale": 1
      },
      "name": "Individual"
    },
    {
      "extras": {
        "component_roots": [
          3
        ],
        "scale": 2
      },
      "name": "Axis"
    },
    {
      "children": [
        4,
        5
      ],
      "extras": {
        "Length": 0.1,
        "Width": 0.02,
        "base": 2.0,
        "scale": 3,
        "top": 2.0
      },
      "matrix": [
        -4.371139e-07,
        0.0,
        10.0,
        0.0,
        0.0,
        1.0,
        0.0,
        0.0,
        -1.0,
        0.0,
        -4.371139e-08,
        0.0,
        0.0,
        0.0,
        0.0,
        1.0
      ],
      "mesh": 0,
      "name": "Internode"
    },
    {
      "extras": {
        "Length": 0.2,
        "Width": 0.1,
        "base": 10.0,
        "edge_type": "+",
        "scale": 3,
        "top": 10.0
      },
      "matrix": [
        0.9999999242896459,
        0.0,
        -17.32050943711387,
        0.0,
        0.0,
        1.0,
        0.0,
        0.0,
        0.08660254718556935,
        0.0,
        0.4999999621448229,
        0.0,
        0.999999995628861,
        0.0,
        -1.0000000371138982,
        1.0
      ],
      "mesh": 1,
      "name": "Leaf"
    },
    {
      "children": [
        6
      ],
      "extras": {
        "Length": 0.1,
        "Width": 0.02,
        "XEuler": 180.0,
        "base": 2.0,
        "edge_type": "<",
        "scale": 3,
        "top": 2.0
      },
      "matrix": [
        1.0000000000000002,
        0.0,
        0.0,
        0.0,
        -2.3146419992834226e-23,
        -1.0,
        -8.742278000000001e-08,
        0.0,
        1.321185784202135e-25,
        8.742278000000017e-08,
        -1.0000000000000002,
        0.0,
        1.0000000000000002,
        0.0,
        0.0,
        1.0
      ],
      "mesh": 0,
      "name": "Internode"
    },
    {
      "extras": {
        "Length": 0.2,
        "Width": 0.1,
        "base": 10.0,
        "edge_type": "+",
        "scale": 3,
        "top": 10.0
      },
      "matrix": [
        0.9999999757103507,
        -1.0958131407565599e-13,
        -17.320508562886115,
        0.0,
        -1.9106859314641964e-16,
        1.0,
        -8.853485709546355e-23,
        0.0,
        0.0866025423814181,
        1.6547024327796313e-15,
        0.4999999853551729,
        0.0,
        1.0000000043711388,
        6.489198319357023e-15,
        -0.9999999257721982,
        1.0
      ],
      "mesh": 1,
      "name": "Leaf"
    }
  ],
  "scene": 3,
  "scenes": [
    {
      "name": "Scene of scale 0",
      "nodes": [
        0
      ]
    },
    {
      "name": "Scene of scale 1",
      "nodes": [
        1
      ]
    },
    {
      "name": "Scene of scale 2",
      "nodes": [
        2
      ]
    },
    {
      "name": "Scene of scale 3",
      "nodes": [
        3
      ]
    }
  ]
}